<svg width="236" height="331" viewBox="0 0 236 331" fill="none" xmlns="http://www.w3.org/2000/svg">
<path d="M5.90976 73.3039C13.3715 58.0202 25.2799 57.9309 35.6798 48.2739C44.3798 40.2139 53.9498 44.7139 63.1198 46.6339C82.8056 50.7456 85.5079 76.5038 92.3698 91.8438C108.247 127.352 132.505 101.03 113.91 76.7639C102.654 62.0816 80.7399 42.2287 86.3597 21.6439C88.0597 15.4039 91.1697 9.77385 97.3997 7.71385C107.23 4.46385 116.69 -0.576145 127.55 0.0538549C143.04 0.953855 157.82 3.34385 169.58 15.1139C173.31 18.8439 179.02 20.5639 182.89 24.1939C211.238 50.7458 227.04 95.961 231.06 133.574C233.2 153.574 234.79 173.654 235.89 193.744C236.348 202.221 233.179 210.349 232.62 218.734C231.84 229.844 230.77 240.944 230.5 252.074C230.32 259.524 231.48 266.994 231.7 274.464C231.97 283.652 231.874 293.078 231.69 302.274C231.563 308.586 235.466 333.46 224.1 330.724C198.67 324.594 175.11 313.814 152.44 301.224C139.3 293.924 126.05 286.044 114.91 276.104C101.549 264.187 87.2356 252.605 73.1097 241.574C66.7397 236.594 62.2298 230.304 57.6798 223.584C49.9798 212.204 40.5498 201.994 31.9198 191.234C27.7598 186.054 23.3898 180.974 19.8298 175.394C13.6329 165.701 99.6443 113.801 20.1998 163.774C17.2998 165.594 15.4098 165.514 13.2398 162.334C4.20976 149.054 0.729755 134.244 0.349755 118.474C-0.252658 103.353 -0.884747 87.222 5.90976 73.3039Z" fill="#A4D792"/>
</svg>
