<svg width="306" height="381" viewBox="0 0 306 381" fill="none" xmlns="http://www.w3.org/2000/svg">
<path d="M76.3152 217.341C63.6652 213.891 53.5552 206.401 45.0452 196.811C43.1852 194.721 42.3152 190.641 42.7952 187.781C44.4152 178.031 50.1252 170.131 55.9052 162.381C58.7852 158.521 61.5952 154.611 64.5652 150.831C68.0152 146.451 69.6152 146.591 73.0252 150.871C74.9277 153.264 78.5819 159.649 81.6152 158.011C81.0552 156.311 80.7152 154.491 79.8952 152.931C74.0552 141.871 74.9952 135.721 83.8252 126.761C92.1052 118.351 99.6552 109.101 108.655 101.571C120.895 91.3209 129.025 77.7109 139.795 66.2909C157.225 47.8209 177.645 33.9109 200.335 22.9809C200.785 22.7609 201.295 22.6709 201.735 22.4409C217.765 14.1809 218.705 18.8009 224.155 31.8809C225.108 34.1625 225.561 36.6188 228.125 36.1609C228.125 31.7809 228.145 27.4009 228.125 23.0209C228.045 11.2109 228.685 9.70088 240.005 6.15088C248.205 3.58088 256.775 2.09088 265.235 0.43088C274.205 -1.32912 281.365 2.51088 288.015 8.16088C290.955 10.6509 294.895 11.9609 297.815 14.4609C300.305 16.5909 303.145 19.3909 303.865 22.3609C307.585 37.8609 306.525 53.0409 299.405 67.6009C297.145 72.2209 295.355 77.0809 293.585 81.9109C291.025 88.8809 286.275 92.2809 278.775 92.0209C275.675 91.9109 272.555 92.3909 269.445 92.6009C268.397 95.0468 272.99 96.8299 274.945 98.1209C276.745 99.3009 278.825 100.111 280.435 101.481C284.655 105.071 284.765 108.221 280.775 111.951C275.545 116.841 270.295 121.591 267.635 128.621C267.065 130.141 263.355 132.081 262.265 131.531C254.475 127.541 246.515 130.291 238.665 130.321C230.622 130.344 200.302 125.726 195.345 132.351C198.585 133.671 201.755 135.911 205.075 136.151C215.175 136.881 225.335 136.931 235.475 137.071C244.125 137.191 251.795 140.221 258.795 144.921C260.055 145.771 261.115 148.981 260.495 150.231C257.545 156.171 254.005 161.831 250.625 167.551C250.215 168.251 249.615 169.071 248.915 169.331C241.045 172.341 237.995 180.721 231.305 185.031C230.345 185.651 229.575 186.591 228.755 187.421C222.625 193.701 222.505 193.911 214.755 189.071C201.831 181.005 182.635 174.05 167.195 177.971C167.105 177.991 167.075 178.231 166.675 179.211C169.875 180.301 173.025 181.441 176.225 182.441C184.165 184.931 192.145 187.271 200.045 189.851C202.235 190.561 204.385 191.661 206.285 192.971C217.395 200.671 214.975 202.371 208.685 209.291C203.625 214.851 200.235 221.951 196.195 228.421C193.645 232.501 191.315 236.731 188.755 240.811C186.805 243.931 184.725 244.311 181.395 241.951C171.615 234.991 160.425 231.501 148.255 230.471C154.435 234.471 160.665 238.391 166.785 242.481C173.345 246.861 175.575 252.561 170.655 258.531C158.005 273.881 145.155 289.361 125.725 296.931C118.715 299.661 111.865 299.401 105.705 295.091C98.1052 289.781 90.8252 284.031 83.4652 278.381C80.8352 276.361 78.2152 274.271 75.9052 271.901C71.9952 267.901 69.1152 269.661 66.6552 273.351C59.8152 283.581 52.7252 293.671 46.4052 304.221C37.5052 319.061 28.9752 334.141 20.7352 349.361C15.9952 358.121 12.2452 367.421 7.79522 376.341C6.97522 377.991 4.90522 379.031 3.41522 380.351C2.20522 378.501 -0.12478 376.561 0.00522046 374.811C0.41522 369.421 0.955223 363.781 2.87522 358.801C13.1252 332.291 26.1052 307.221 43.6952 284.711C48.0952 279.081 52.2552 273.251 56.3952 267.431C58.9152 263.891 56.1152 255.891 51.1952 252.831C48.2352 250.991 45.0952 249.391 41.8852 248.021C27.9052 242.031 26.2552 232.371 27.2852 220.521C27.5152 217.891 28.1352 215.241 28.9652 212.731C30.7352 207.401 32.9152 206.581 37.3252 210.211C44.4752 216.111 52.6052 219.631 61.5852 221.251C69.1152 222.611 76.6852 222.861 84.1352 220.941C84.6239 218.07 78.7104 217.993 76.3152 217.341Z" fill="#A4D792"/>
</svg>
